<svg width="23" height="23" viewBox="0 0 23 23" fill="none" xmlns="http://www.w3.org/2000/svg">
<path d="M21.3335 16.4999C21.3335 16.9384 21.2102 17.3448 21.0126 17.7025L14.6978 10.6371L20.9441 5.17207C21.1871 5.55767 21.3335 6.01063 21.3335 6.50011V16.4999ZM11.3335 11.9199L20.0251 4.315C19.6684 4.11974 19.2668 4 18.8336 4H3.83348C3.39969 4 2.99793 4.11974 2.6427 4.315L11.3335 11.9199ZM13.7567 11.4598L11.7448 13.2213C11.6271 13.3238 11.4806 13.375 11.3335 13.375C11.1864 13.375 11.0398 13.3238 10.9221 13.2213L8.90983 11.4598L2.51513 18.6155C2.89842 18.8559 3.34763 19 3.83344 19H18.8336C19.3193 19 19.7687 18.8559 20.1519 18.6155L13.7567 11.4598ZM1.72293 5.17203C1.47999 5.55763 1.3335 6.01059 1.3335 6.50011V16.5C1.3335 16.9384 1.45625 17.3449 1.65455 17.7025L7.96863 10.6359L1.72293 5.17203Z" fill="white"/>
</svg>
