<svg  viewBox="0 0 50 50" fill="none" xmlns="http://www.w3.org/2000/svg">
<rect x="1.25" y="1.25" width="47.5" height="47.5" rx="6.75" fill="white" stroke="#EEB039" stroke-width="2.5"/>
<path d="M20.6024 37H3.20876L13.4088 24.8674C13.4326 24.8435 13.4445 24.8316 13.4445 24.8316C13.4684 24.8077 13.4923 24.7839 13.5161 24.76C13.9456 24.2828 14.3393 23.734 14.6972 23.1137C15.0551 22.4695 15.234 21.8253 15.234 21.1811V20.7158C15.1147 20.0239 14.7926 19.487 14.2677 19.1053C13.7667 18.6996 13.1702 18.4968 12.4782 18.4968C11.2375 18.4968 10.4382 18.8905 10.0803 19.6779C9.72244 20.4653 9.51964 21.3719 9.47192 22.3979H4.03192C4.05578 21.1333 4.24665 19.9284 4.60455 18.7832C4.9863 17.614 5.67823 16.6119 6.68034 15.7768C7.34841 15.2281 8.12385 14.7986 9.00665 14.4884C9.88946 14.1782 10.7842 13.9993 11.6909 13.9516C11.7863 13.9277 11.8937 13.9158 12.013 13.9158C12.1323 13.9158 12.2396 13.9158 12.3351 13.9158C12.4305 13.9158 12.526 13.9158 12.6214 13.9158C12.7407 13.9158 12.86 13.9277 12.9793 13.9516C14.8642 14.0709 16.606 14.7032 18.2045 15.8484C19.8031 16.9698 20.686 18.5684 20.853 20.6442V21.2168C20.853 22.4337 20.5309 23.5789 19.8867 24.6526C19.2663 25.7025 18.5386 26.6807 17.7035 27.5874L13.6593 32.1326H20.6024V37ZM25.5906 37V14.2021H31.7464V24.5453L38.9401 14.2021H46.2053L37.7948 25.2968L46.9569 37H39.1906L31.7464 26.7284V37H25.5906Z" fill="#EEB039"/>
</svg>
