<svg width="48" height="48" viewBox="0 0 48 48" fill="none" xmlns="http://www.w3.org/2000/svg">
<g clip-path="url(#clip0_2387_328)">
<path d="M43.1067 7.99989C42.9249 7.98116 42.7418 7.98116 42.56 7.99989H5.22669C4.98741 8.00357 4.74972 8.03945 4.52002 8.10655L23.7867 27.2932L43.1067 7.99989Z" fill="#A17217"/>
<path d="M45.0799 9.85327L25.6666 29.1866C25.1669 29.6833 24.4911 29.9621 23.7866 29.9621C23.0821 29.9621 22.4062 29.6833 21.9066 29.1866L2.66658 9.99994C2.60743 10.2173 2.57607 10.4413 2.57324 10.6666V37.3333C2.57324 38.0405 2.85419 38.7188 3.35429 39.2189C3.85439 39.719 4.53266 39.9999 5.23991 39.9999H42.5732C43.2805 39.9999 43.9588 39.719 44.4589 39.2189C44.959 38.7188 45.2399 38.0405 45.2399 37.3333V10.6666C45.2293 10.3888 45.1753 10.1144 45.0799 9.85327ZM7.06658 37.3333H5.21324V35.4266L14.9066 25.8133L16.7866 27.6933L7.06658 37.3333ZM42.5466 37.3333H40.6799L30.9599 27.6933L32.8399 25.8133L42.5332 35.4266L42.5466 37.3333Z" fill="#A17217"/>
</g>
<defs>
<clipPath id="clip0_2387_328">
<rect width="48" height="48" fill="white"/>
</clipPath>
</defs>
</svg>
