<svg width="43" height="43" viewBox="0 0 43 43" fill="none" xmlns="http://www.w3.org/2000/svg">
<path fill-rule="evenodd" clip-rule="evenodd" d="M21.5009 0C33.3749 0 43.0009 9.626 43.0009 21.5C43.0009 33.374 33.3749 43 21.5009 43C17.7809 43 14.2809 42.054 11.2269 40.39L1.74689 41.98C1.51323 42.019 1.27365 42.0021 1.04779 41.9307C0.821915 41.8592 0.616172 41.7354 0.447401 41.5691C0.27863 41.4029 0.15163 41.199 0.0768012 40.9743C0.00197203 40.7495 -0.0185591 40.5102 0.016889 40.276L1.61689 29.696C0.545038 27.0967 -0.0040899 24.3116 0.000888974 21.5C0.000888974 9.626 9.62689 0 21.5009 0ZM13.3869 10.9C11.9169 10.9 10.6989 12.14 10.9269 13.672C11.3589 16.544 12.6349 21.836 16.4309 25.66C20.3989 29.658 26.0769 31.368 29.1509 32.042C30.7429 32.392 32.1009 31.132 32.1009 29.578V25.93C32.1009 25.8088 32.0643 25.6904 31.9957 25.5905C31.9272 25.4905 31.83 25.4136 31.7169 25.37L27.7969 23.864C27.6911 23.8235 27.576 23.8138 27.4649 23.836L23.5109 24.608C20.9609 23.288 19.4169 21.808 18.4909 19.578L19.2349 15.548C19.2548 15.4408 19.2451 15.3301 19.2069 15.228L17.7369 11.29C17.6942 11.1758 17.6178 11.0773 17.5177 11.0076C17.4177 10.938 17.2988 10.9004 17.1769 10.9H13.3869Z" fill="#A17217"/>
</svg>
