<svg width="80" height="80" viewBox="0 0 80 80" fill="none" xmlns="http://www.w3.org/2000/svg">
<path fill-rule="evenodd" clip-rule="evenodd" d="M40.2 19.7999C41.1363 20.7375 41.6623 22.0083 41.6623 23.3333C41.6623 24.6583 41.1363 25.9291 40.2 26.8666L27.0733 40L40.2067 53.1333C41.117 54.0767 41.6204 55.34 41.6084 56.651C41.5964 57.9619 41.07 59.2158 40.1425 60.1424C39.215 61.069 37.9607 61.5942 36.6497 61.605C35.3387 61.6158 34.0759 61.1112 33.1333 60.2L16.4667 43.5333C15.5303 42.5958 15.0044 41.325 15.0044 40C15.0044 38.6749 15.5303 37.4041 16.4667 36.4666L33.1333 19.7999C33.5977 19.3353 34.149 18.9667 34.7558 18.7153C35.3627 18.4638 36.0131 18.3344 36.67 18.3344C37.3269 18.3344 37.9773 18.4638 38.5842 18.7153C39.191 18.9667 39.7423 19.3353 40.2067 19.7999H40.2ZM60.2 19.7999C61.1363 20.7375 61.6623 22.0083 61.6623 23.3333C61.6623 24.6583 61.1363 25.9291 60.2 26.8666L47.0733 40L60.2067 53.1333C61.117 54.0767 61.6204 55.34 61.6084 56.651C61.5964 57.9619 61.07 59.2158 60.1425 60.1424C59.215 61.069 57.9607 61.5942 56.6497 61.605C55.3387 61.6158 54.0759 61.1112 53.1333 60.2L36.4667 43.5333C35.5303 42.5958 35.0044 41.325 35.0044 40C35.0044 38.6749 35.5303 37.4041 36.4667 36.4666L53.1333 19.7999C53.5977 19.3353 54.149 18.9667 54.7558 18.7153C55.3627 18.4638 56.0131 18.3344 56.67 18.3344C57.3269 18.3344 57.9773 18.4638 58.5841 18.7153C59.191 18.9667 59.7423 19.3353 60.2067 19.7999H60.2Z" fill="#FFA629"/>
</svg>
