<svg width="80" height="80" viewBox="0 0 80 80" fill="none" xmlns="http://www.w3.org/2000/svg">
<path fill-rule="evenodd" clip-rule="evenodd" d="M39.8 19.7999C38.8637 20.7375 38.3377 22.0083 38.3377 23.3333C38.3377 24.6583 38.8637 25.9291 39.8 26.8666L52.9267 40L39.7933 53.1333C38.883 54.0767 38.3796 55.34 38.3916 56.651C38.4036 57.9619 38.93 59.2158 39.8575 60.1424C40.785 61.069 42.0393 61.5942 43.3503 61.605C44.6613 61.6158 45.9241 61.1112 46.8667 60.2L63.5333 43.5333C64.4697 42.5958 64.9956 41.325 64.9956 40C64.9956 38.6749 64.4697 37.4041 63.5333 36.4666L46.8667 19.7999C46.4023 19.3353 45.851 18.9667 45.2442 18.7153C44.6373 18.4638 43.9869 18.3344 43.33 18.3344C42.6731 18.3344 42.0227 18.4638 41.4158 18.7153C40.809 18.9667 40.2577 19.3353 39.7933 19.7999H39.8ZM19.8 19.7999C18.8637 20.7375 18.3377 22.0083 18.3377 23.3333C18.3377 24.6583 18.8637 25.9291 19.8 26.8666L32.9267 40L19.7933 53.1333C18.883 54.0767 18.3796 55.34 18.3916 56.651C18.4036 57.9619 18.93 59.2158 19.8575 60.1424C20.785 61.069 22.0393 61.5942 23.3503 61.605C24.6613 61.6158 25.9241 61.1112 26.8667 60.2L43.5333 43.5333C44.4697 42.5958 44.9956 41.325 44.9956 40C44.9956 38.6749 44.4697 37.4041 43.5333 36.4666L26.8667 19.7999C26.4023 19.3353 25.851 18.9667 25.2442 18.7153C24.6373 18.4638 23.9869 18.3344 23.33 18.3344C22.6731 18.3344 22.0227 18.4638 21.4159 18.7153C20.809 18.9667 20.2577 19.3353 19.7933 19.7999H19.8Z" fill="#FFA629"/>
</svg>
