<svg width="20" height="20" viewBox="0 0 20 20" fill="none" xmlns="http://www.w3.org/2000/svg">
<path d="M15.2051 13.2295C14.5517 12.5844 13.736 12.5844 13.0867 13.2295C12.5915 13.7206 12.0962 14.2117 11.6093 14.7111C11.4761 14.8485 11.3638 14.8776 11.2014 14.786C10.881 14.6112 10.5397 14.4697 10.2317 14.2783C8.79592 13.3752 7.59315 12.214 6.52773 10.9072C5.99918 10.258 5.52889 9.56296 5.20011 8.78054C5.13352 8.62239 5.14601 8.51835 5.27502 8.38933C5.77028 7.91072 6.25305 7.41963 6.73998 6.92853C7.41836 6.246 7.41836 5.44693 6.73582 4.76023C6.34877 4.36902 5.96172 3.98613 5.57467 3.59492C5.17514 3.19539 4.77977 2.79169 4.37607 2.39632C3.72267 1.75956 2.90695 1.75956 2.25771 2.40048C1.75829 2.89158 1.27968 3.39515 0.771944 3.87793C0.301659 4.32324 0.0644358 4.86844 0.014494 5.50519C-0.0645804 6.54149 0.18929 7.51951 0.547206 8.47257C1.27968 10.4453 2.39505 12.1974 3.74764 13.8039C5.57467 15.9763 7.75546 17.6951 10.3067 18.9354C11.4553 19.493 12.6456 19.9217 13.9399 19.9925C14.8305 20.0424 15.6046 19.8177 16.2248 19.1226C16.6493 18.6482 17.1279 18.2154 17.5773 17.7617C18.2432 17.0875 18.2474 16.2718 17.5857 15.6059C16.7949 14.811 16 14.0203 15.2051 13.2295Z" fill="white"/>
<path d="M14.4105 9.9138L15.9462 9.6516C15.7048 8.24075 15.0389 6.96307 14.0276 5.94759C12.958 4.878 11.6054 4.20379 10.1155 3.9957L9.89904 5.53973C11.0519 5.70204 12.1006 6.22227 12.9288 7.05047C13.7113 7.83289 14.2232 8.8234 14.4105 9.9138Z" fill="white"/>
<path d="M16.8117 3.23789C15.0388 1.46496 12.7956 0.34543 10.3193 0L10.1029 1.54403C12.242 1.84368 14.1814 2.81338 15.713 4.34077C17.1655 5.79324 18.1185 7.6286 18.4639 9.64708L19.9997 9.38488C19.596 7.04595 18.4931 4.92342 16.8117 3.23789Z" fill="white"/>
</svg>
