<svg width="50" height="50" viewBox="0 0 50 50" fill="none" xmlns="http://www.w3.org/2000/svg">
<path d="M8 1.25H42C45.7279 1.25 48.75 4.27208 48.75 8V42C48.75 45.7279 45.7279 48.75 42 48.75H8C4.27208 48.75 1.25 45.7279 1.25 42V8C1.25 4.27208 4.27208 1.25 8 1.25Z" fill="white" stroke="#EEB039" stroke-width="2.5"/>
<path d="M7.56633 12.4336V13.9631H8.10693C8.25637 13.9631 8.4146 13.9675 8.58162 13.9763C8.74863 13.9763 8.92005 13.9807 9.09585 13.9895C9.30682 14.0071 9.5134 14.0334 9.71558 14.0686C9.92655 14.095 10.1155 14.1345 10.2826 14.1873C10.7836 14.3719 11.1968 14.6707 11.522 15.0839C11.856 15.497 12.0231 16.0025 12.0231 16.6002V16.798C11.9791 17.5891 11.6714 18.1298 11.1001 18.4198C10.5375 18.7099 9.91776 18.8857 9.2409 18.9473C8.99476 18.9736 8.74863 18.9912 8.5025 19C8.25637 19 8.02343 19 7.80367 19H5.43026V10.6008H10.5858V12.4336H7.56633ZM7.56633 15.4531V17.2727C7.61907 17.2727 7.67621 17.2727 7.73774 17.2727C7.79927 17.2727 7.8652 17.2727 7.93552 17.2727C7.97068 17.2815 8.00585 17.2859 8.04101 17.2859C8.07617 17.2859 8.11133 17.2859 8.14649 17.2859C8.18165 17.2859 8.21681 17.2859 8.25198 17.2859C8.28714 17.2859 8.3223 17.2859 8.35746 17.2859C8.38383 17.2859 8.4102 17.2859 8.43657 17.2859C8.47174 17.2859 8.5069 17.2859 8.54206 17.2859C8.84972 17.2771 9.13541 17.2243 9.39912 17.1276C9.66284 17.0222 9.80788 16.82 9.83425 16.5211V16.3497C9.83425 16.0069 9.70239 15.7783 9.43868 15.664C9.17497 15.541 8.88928 15.4707 8.58162 15.4531C8.54645 15.4531 8.51129 15.4531 8.47613 15.4531C8.44976 15.4531 8.41899 15.4531 8.38383 15.4531H7.56633ZM16.0622 17.4177C15.7545 18.1034 15.3765 18.5385 14.9282 18.7231C14.4887 18.9077 14.0096 19 13.491 19C13.4558 19 13.4163 19 13.3723 19C13.3372 18.9912 13.302 18.9868 13.2668 18.9868C13.2229 18.9868 13.1789 18.9868 13.135 18.9868C13.0998 18.978 13.0646 18.9736 13.0295 18.9736V16.9035C13.2932 16.8859 13.4954 16.8507 13.636 16.798C13.7767 16.7365 13.9041 16.6002 14.0184 16.3893C14.0272 16.3717 14.036 16.3541 14.0448 16.3365C14.0536 16.3189 14.0624 16.3013 14.0712 16.2838C14.2557 15.853 14.3876 15.1806 14.4667 14.2664C14.5546 13.3522 14.603 12.1303 14.6118 10.6008H21.0991V19H18.818V12.4336H16.8269C16.783 13.5412 16.6951 14.4993 16.5632 15.308C16.4402 16.108 16.3039 16.7233 16.1545 17.154C16.1369 17.2068 16.1193 17.2551 16.1017 17.2991C16.0929 17.343 16.0798 17.3826 16.0622 17.4177ZM22.8161 19V10.6008H27.9717V12.4336H25.0708V13.8972H27.8002V15.6904H25.0708V17.1145H27.9717V19H22.8161ZM35.7186 10.9172V13.4225C35.4285 13.1236 35.1253 12.8819 34.8088 12.6973C34.4923 12.5127 34.1275 12.4204 33.7144 12.4204H33.5166C32.9101 12.4731 32.4398 12.7324 32.1057 13.1983C31.7805 13.6642 31.6047 14.1697 31.5783 14.7147C31.5783 14.7323 31.5783 14.7542 31.5783 14.7806C31.5783 14.7982 31.5783 14.8158 31.5783 14.8334C31.5783 15.3256 31.7058 15.7915 31.9607 16.231C32.2156 16.6618 32.5936 16.9518 33.0947 17.1013C33.2177 17.1364 33.332 17.1628 33.4375 17.1804C33.5518 17.198 33.6573 17.2068 33.7539 17.2068C34.1407 17.2068 34.4923 17.1101 34.8088 16.9167C35.1253 16.7145 35.4285 16.4684 35.7186 16.1783V18.6835C35.5955 18.7363 35.4725 18.7846 35.3494 18.8286C35.2351 18.8725 35.1165 18.9121 34.9934 18.9473C34.7561 19.0088 34.5143 19.0571 34.2682 19.0923C34.0308 19.1363 33.7891 19.1582 33.543 19.1582C33.4902 19.1582 33.4375 19.1582 33.3848 19.1582C33.3408 19.1582 33.2925 19.1582 33.2397 19.1582C33.187 19.1582 33.1342 19.1538 33.0815 19.145C33.0375 19.145 32.9892 19.1406 32.9364 19.1319C31.8289 19.0264 30.941 18.5517 30.273 17.7078C29.6137 16.8551 29.284 15.8838 29.284 14.7938C29.284 13.7126 29.6137 12.75 30.273 11.9061C30.941 11.0535 31.8289 10.5612 32.9364 10.4294C32.9804 10.4294 33.0243 10.4294 33.0683 10.4294C33.1122 10.4206 33.1562 10.4162 33.2002 10.4162C33.2353 10.4162 33.2749 10.4162 33.3188 10.4162C33.3628 10.4074 33.4067 10.403 33.4507 10.403C33.8375 10.403 34.2198 10.4513 34.5978 10.548C34.9846 10.6359 35.3582 10.759 35.7186 10.9172ZM37.3384 19V10.6008H39.6063V14.4114L42.2566 10.6008H44.9333L41.8347 14.6883L45.2102 19H42.3489L39.6063 15.2157V19H37.3384Z" fill="#EEB039"/>
<path d="M0 24H49V41C49 45.4183 45.4183 49 41 49H8C3.58172 49 0 45.4183 0 41V24Z" fill="#EEB039"/>
<path d="M14.8409 40H12.2471L11.6547 35.5809C11.6227 35.3888 11.596 35.202 11.5747 35.0206C11.5533 34.8284 11.532 34.6363 11.5106 34.4442C11.5 34.252 11.484 34.0652 11.4626 33.8838C11.4519 33.6916 11.4359 33.4995 11.4146 33.3074C11.4039 33.4141 11.3879 33.5208 11.3665 33.6276C11.3452 33.7343 11.3185 33.8411 11.2865 33.9478C11.2438 34.1613 11.1904 34.3748 11.1264 34.5883C11.073 34.7911 11.0143 35.0045 10.9502 35.2287L9.57329 40H7.73202L6.33906 35.2287C6.27501 35.0045 6.2163 34.7911 6.16293 34.5883C6.10956 34.3748 6.05619 34.1613 6.00282 33.9478C5.98148 33.8411 5.95479 33.7343 5.92277 33.6276C5.90142 33.5208 5.88007 33.4141 5.85872 33.3074C5.84805 33.4995 5.83204 33.6916 5.81069 33.8838C5.80002 34.0652 5.78401 34.252 5.76266 34.4442C5.74131 34.6363 5.71996 34.8284 5.69861 35.0206C5.67726 35.202 5.65592 35.3888 5.63457 35.5809L5.04216 40H2.46437L4.01745 29.8009H6.77136L8.32443 35.0366C8.35645 35.1647 8.38847 35.2874 8.4205 35.4048C8.46319 35.5116 8.49522 35.6236 8.51656 35.7411C8.54859 35.8585 8.57527 35.9759 8.59662 36.0933C8.61797 36.2 8.63398 36.3175 8.64465 36.4455C8.666 36.3068 8.68735 36.1734 8.7087 36.0453C8.74072 35.9065 8.77274 35.7677 8.80476 35.629C8.82611 35.5329 8.84746 35.4368 8.86881 35.3408C8.89016 35.2447 8.91684 35.1433 8.94886 35.0366L10.5179 29.8009H13.2558L14.8409 40ZM18.7649 40V32.2186H16.4913V29.8009H23.8244V32.2186H21.5508V40H18.7649ZM23.6997 37.6143V35.3568H28.423V37.6143H23.6997ZM32.8313 32.0265V40H30.0613V29.8009H39.3158V40H36.5458V32.0265H32.8313ZM41.4007 40V29.8009H47.661V32.0265H44.1386V40H41.4007Z" fill="white"/>
</svg>
