<svg width="51" height="50" viewBox="0 0 51 50" fill="none" xmlns="http://www.w3.org/2000/svg">
<path d="M9 1.25H43C46.7279 1.25 49.75 4.27208 49.75 8V42C49.75 45.7279 46.7279 48.75 43 48.75H9C5.27208 48.75 2.25 45.7279 2.25 42V8C2.25 4.27208 5.27208 1.25 9 1.25Z" fill="white" stroke="#EEB039" stroke-width="2.5"/>
<path d="M8.56633 12.4336V13.9631H9.10693C9.25637 13.9631 9.4146 13.9675 9.58162 13.9763C9.74863 13.9763 9.92005 13.9807 10.0959 13.9895C10.3068 14.0071 10.5134 14.0334 10.7156 14.0686C10.9265 14.095 11.1155 14.1345 11.2826 14.1873C11.7836 14.3719 12.1968 14.6707 12.522 15.0839C12.856 15.497 13.0231 16.0025 13.0231 16.6002V16.798C12.9791 17.5891 12.6714 18.1298 12.1001 18.4198C11.5375 18.7099 10.9178 18.8857 10.2409 18.9473C9.99476 18.9736 9.74863 18.9912 9.5025 19C9.25637 19 9.02343 19 8.80367 19H6.43026V10.6008H11.5858V12.4336H8.56633ZM8.56633 15.4531V17.2727C8.61907 17.2727 8.67621 17.2727 8.73774 17.2727C8.79927 17.2727 8.8652 17.2727 8.93552 17.2727C8.97068 17.2815 9.00585 17.2859 9.04101 17.2859C9.07617 17.2859 9.11133 17.2859 9.14649 17.2859C9.18165 17.2859 9.21681 17.2859 9.25198 17.2859C9.28714 17.2859 9.3223 17.2859 9.35746 17.2859C9.38383 17.2859 9.4102 17.2859 9.43657 17.2859C9.47174 17.2859 9.5069 17.2859 9.54206 17.2859C9.84972 17.2771 10.1354 17.2243 10.3991 17.1276C10.6628 17.0222 10.8079 16.82 10.8342 16.5211V16.3497C10.8342 16.0069 10.7024 15.7783 10.4387 15.664C10.175 15.541 9.88928 15.4707 9.58162 15.4531C9.54645 15.4531 9.51129 15.4531 9.47613 15.4531C9.44976 15.4531 9.41899 15.4531 9.38383 15.4531H8.56633ZM17.0622 17.4177C16.7545 18.1034 16.3765 18.5385 15.9282 18.7231C15.4887 18.9077 15.0096 19 14.491 19C14.4558 19 14.4163 19 14.3723 19C14.3372 18.9912 14.302 18.9868 14.2668 18.9868C14.2229 18.9868 14.1789 18.9868 14.135 18.9868C14.0998 18.978 14.0646 18.9736 14.0295 18.9736V16.9035C14.2932 16.8859 14.4954 16.8507 14.636 16.798C14.7767 16.7365 14.9041 16.6002 15.0184 16.3893C15.0272 16.3717 15.036 16.3541 15.0448 16.3365C15.0536 16.3189 15.0624 16.3013 15.0712 16.2838C15.2557 15.853 15.3876 15.1806 15.4667 14.2664C15.5546 13.3522 15.603 12.1303 15.6118 10.6008H22.0991V19H19.818V12.4336H17.8269C17.783 13.5412 17.6951 14.4993 17.5632 15.308C17.4402 16.108 17.3039 16.7233 17.1545 17.154C17.1369 17.2068 17.1193 17.2551 17.1017 17.2991C17.0929 17.343 17.0798 17.3826 17.0622 17.4177ZM23.8161 19V10.6008H28.9717V12.4336H26.0708V13.8972H28.8002V15.6904H26.0708V17.1145H28.9717V19H23.8161ZM36.7186 10.9172V13.4225C36.4285 13.1236 36.1253 12.8819 35.8088 12.6973C35.4923 12.5127 35.1275 12.4204 34.7144 12.4204H34.5166C33.9101 12.4731 33.4398 12.7324 33.1057 13.1983C32.7805 13.6642 32.6047 14.1697 32.5783 14.7147C32.5783 14.7323 32.5783 14.7542 32.5783 14.7806C32.5783 14.7982 32.5783 14.8158 32.5783 14.8334C32.5783 15.3256 32.7058 15.7915 32.9607 16.231C33.2156 16.6618 33.5936 16.9518 34.0947 17.1013C34.2177 17.1364 34.332 17.1628 34.4375 17.1804C34.5518 17.198 34.6573 17.2068 34.7539 17.2068C35.1407 17.2068 35.4923 17.1101 35.8088 16.9167C36.1253 16.7145 36.4285 16.4684 36.7186 16.1783V18.6835C36.5955 18.7363 36.4725 18.7846 36.3494 18.8286C36.2351 18.8725 36.1165 18.9121 35.9934 18.9473C35.7561 19.0088 35.5143 19.0571 35.2682 19.0923C35.0308 19.1363 34.7891 19.1582 34.543 19.1582C34.4902 19.1582 34.4375 19.1582 34.3848 19.1582C34.3408 19.1582 34.2925 19.1582 34.2397 19.1582C34.187 19.1582 34.1342 19.1538 34.0815 19.145C34.0375 19.145 33.9892 19.1406 33.9364 19.1319C32.8289 19.0264 31.941 18.5517 31.273 17.7078C30.6137 16.8551 30.284 15.8838 30.284 14.7938C30.284 13.7126 30.6137 12.75 31.273 11.9061C31.941 11.0535 32.8289 10.5612 33.9364 10.4294C33.9804 10.4294 34.0243 10.4294 34.0683 10.4294C34.1122 10.4206 34.1562 10.4162 34.2002 10.4162C34.2353 10.4162 34.2749 10.4162 34.3188 10.4162C34.3628 10.4074 34.4067 10.403 34.4507 10.403C34.8375 10.403 35.2198 10.4513 35.5978 10.548C35.9846 10.6359 36.3582 10.759 36.7186 10.9172ZM38.3384 19V10.6008H40.6063V14.4114L43.2566 10.6008H45.9333L42.8347 14.6883L46.2102 19H43.3489L40.6063 15.2157V19H38.3384Z" fill="#EEB039"/>
<path d="M1 24H50V41C50 45.4183 46.4183 49 42 49H9C4.58172 49 1 45.4183 1 41V24Z" fill="#EEB039"/>
<path d="M4.7269 33.027V41H1.95717V30.8016H11.2109V41H8.44122V33.027H4.7269ZM24.871 41H22.2774L21.685 36.5812C21.653 36.3891 21.6263 36.2023 21.6049 36.0209C21.5836 35.8288 21.5622 35.6366 21.5409 35.4445C21.5302 35.2524 21.5142 35.0656 21.4929 34.8842C21.4822 34.6921 21.4662 34.4999 21.4448 34.3078C21.4342 34.4146 21.4182 34.5213 21.3968 34.628C21.3755 34.7348 21.3488 34.8415 21.3168 34.9482C21.2741 35.1617 21.2207 35.3752 21.1567 35.5886C21.1033 35.7914 21.0446 36.0049 20.9806 36.229L19.6037 41H17.7625L16.3697 36.229C16.3056 36.0049 16.2469 35.7914 16.1936 35.5886C16.1402 35.3752 16.0868 35.1617 16.0335 34.9482C16.0121 34.8415 15.9854 34.7348 15.9534 34.628C15.9321 34.5213 15.9107 34.4146 15.8894 34.3078C15.8787 34.4999 15.8627 34.6921 15.8413 34.8842C15.8307 35.0656 15.8147 35.2524 15.7933 35.4445C15.772 35.6366 15.7506 35.8288 15.7293 36.0209C15.7079 36.2023 15.6866 36.3891 15.6652 36.5812L15.0729 41H12.4953L14.0482 30.8016H16.8019L18.3549 36.0369C18.3869 36.165 18.419 36.2877 18.451 36.4051C18.4937 36.5119 18.5257 36.6239 18.547 36.7413C18.5791 36.8587 18.6057 36.9762 18.6271 37.0936C18.6484 37.2003 18.6644 37.3177 18.6751 37.4458C18.6965 37.307 18.7178 37.1736 18.7392 37.0455C18.7712 36.9068 18.8032 36.768 18.8352 36.6293C18.8566 36.5332 18.8779 36.4371 18.8993 36.3411C18.9206 36.245 18.9473 36.1436 18.9793 36.0369L20.5483 30.8016H23.286L24.871 41ZM25.8649 38.6145V36.3571H30.5878V38.6145H25.8649ZM34.9958 33.027V41H32.2261V30.8016H41.4799V41H38.7101V33.027H34.9958ZM43.5647 41V30.8016H49.8246V33.027H46.3024V41H43.5647Z" fill="white"/>
</svg>
