<svg width="50" height="50" viewBox="0 0 50 50" fill="none" xmlns="http://www.w3.org/2000/svg">
<path d="M8 1.25H42C45.7279 1.25 48.75 4.27208 48.75 8V42C48.75 45.7279 45.7279 48.75 42 48.75H8C4.27208 48.75 1.25 45.7279 1.25 42V8C1.25 4.27208 4.27208 1.25 8 1.25Z" fill="white" stroke="#EEB039" stroke-width="2.5"/>
<path d="M7.56633 12.4336V13.9631H8.10693C8.25637 13.9631 8.4146 13.9675 8.58162 13.9763C8.74863 13.9763 8.92005 13.9807 9.09585 13.9895C9.30682 14.0071 9.5134 14.0334 9.71558 14.0686C9.92655 14.095 10.1155 14.1345 10.2826 14.1873C10.7836 14.3719 11.1968 14.6707 11.522 15.0839C11.856 15.497 12.0231 16.0025 12.0231 16.6002V16.798C11.9791 17.5891 11.6714 18.1298 11.1001 18.4198C10.5375 18.7099 9.91776 18.8857 9.2409 18.9473C8.99476 18.9736 8.74863 18.9912 8.5025 19C8.25637 19 8.02343 19 7.80367 19H5.43026V10.6008H10.5858V12.4336H7.56633ZM7.56633 15.4531V17.2727C7.61907 17.2727 7.67621 17.2727 7.73774 17.2727C7.79927 17.2727 7.8652 17.2727 7.93552 17.2727C7.97068 17.2815 8.00585 17.2859 8.04101 17.2859C8.07617 17.2859 8.11133 17.2859 8.14649 17.2859C8.18165 17.2859 8.21681 17.2859 8.25198 17.2859C8.28714 17.2859 8.3223 17.2859 8.35746 17.2859C8.38383 17.2859 8.4102 17.2859 8.43657 17.2859C8.47174 17.2859 8.5069 17.2859 8.54206 17.2859C8.84972 17.2771 9.13541 17.2243 9.39912 17.1276C9.66284 17.0222 9.80788 16.82 9.83425 16.5211V16.3497C9.83425 16.0069 9.70239 15.7783 9.43868 15.664C9.17497 15.541 8.88928 15.4707 8.58162 15.4531C8.54645 15.4531 8.51129 15.4531 8.47613 15.4531C8.44976 15.4531 8.41899 15.4531 8.38383 15.4531H7.56633ZM16.0622 17.4177C15.7545 18.1034 15.3765 18.5385 14.9282 18.7231C14.4887 18.9077 14.0096 19 13.491 19C13.4558 19 13.4163 19 13.3723 19C13.3372 18.9912 13.302 18.9868 13.2668 18.9868C13.2229 18.9868 13.1789 18.9868 13.135 18.9868C13.0998 18.978 13.0646 18.9736 13.0295 18.9736V16.9035C13.2932 16.8859 13.4954 16.8507 13.636 16.798C13.7767 16.7365 13.9041 16.6002 14.0184 16.3893C14.0272 16.3717 14.036 16.3541 14.0448 16.3365C14.0536 16.3189 14.0624 16.3013 14.0712 16.2838C14.2557 15.853 14.3876 15.1806 14.4667 14.2664C14.5546 13.3522 14.603 12.1303 14.6118 10.6008H21.0991V19H18.818V12.4336H16.8269C16.783 13.5412 16.6951 14.4993 16.5632 15.308C16.4402 16.108 16.3039 16.7233 16.1545 17.154C16.1369 17.2068 16.1193 17.2551 16.1017 17.2991C16.0929 17.343 16.0798 17.3826 16.0622 17.4177ZM22.8161 19V10.6008H27.9717V12.4336H25.0708V13.8972H27.8002V15.6904H25.0708V17.1145H27.9717V19H22.8161ZM35.7186 10.9172V13.4225C35.4285 13.1236 35.1253 12.8819 34.8088 12.6973C34.4923 12.5127 34.1275 12.4204 33.7144 12.4204H33.5166C32.9101 12.4731 32.4398 12.7324 32.1057 13.1983C31.7805 13.6642 31.6047 14.1697 31.5783 14.7147C31.5783 14.7323 31.5783 14.7542 31.5783 14.7806C31.5783 14.7982 31.5783 14.8158 31.5783 14.8334C31.5783 15.3256 31.7058 15.7915 31.9607 16.231C32.2156 16.6618 32.5936 16.9518 33.0947 17.1013C33.2177 17.1364 33.332 17.1628 33.4375 17.1804C33.5518 17.198 33.6573 17.2068 33.7539 17.2068C34.1407 17.2068 34.4923 17.1101 34.8088 16.9167C35.1253 16.7145 35.4285 16.4684 35.7186 16.1783V18.6835C35.5955 18.7363 35.4725 18.7846 35.3494 18.8286C35.2351 18.8725 35.1165 18.9121 34.9934 18.9473C34.7561 19.0088 34.5143 19.0571 34.2682 19.0923C34.0308 19.1363 33.7891 19.1582 33.543 19.1582C33.4902 19.1582 33.4375 19.1582 33.3848 19.1582C33.3408 19.1582 33.2925 19.1582 33.2397 19.1582C33.187 19.1582 33.1342 19.1538 33.0815 19.145C33.0375 19.145 32.9892 19.1406 32.9364 19.1319C31.8289 19.0264 30.941 18.5517 30.273 17.7078C29.6137 16.8551 29.284 15.8838 29.284 14.7938C29.284 13.7126 29.6137 12.75 30.273 11.9061C30.941 11.0535 31.8289 10.5612 32.9364 10.4294C32.9804 10.4294 33.0243 10.4294 33.0683 10.4294C33.1122 10.4206 33.1562 10.4162 33.2002 10.4162C33.2353 10.4162 33.2749 10.4162 33.3188 10.4162C33.3628 10.4074 33.4067 10.403 33.4507 10.403C33.8375 10.403 34.2198 10.4513 34.5978 10.548C34.9846 10.6359 35.3582 10.759 35.7186 10.9172ZM37.3384 19V10.6008H39.6063V14.4114L42.2566 10.6008H44.9333L41.8347 14.6883L45.2102 19H42.3489L39.6063 15.2157V19H37.3384Z" fill="#EEB039"/>
<path d="M0 24H49V41C49 45.4183 45.4183 49 41 49H8C3.58172 49 0 45.4183 0 41V24Z" fill="#EEB039"/>
<path d="M4.30371 31.0265V39H1.53379V28.8009H10.7882V39H8.01828V31.0265H4.30371ZM24.4492 39H21.8554L21.2629 34.5809C21.2309 34.3888 21.2042 34.202 21.1829 34.0206C21.1615 33.8284 21.1402 33.6363 21.1188 33.4442C21.1082 33.252 21.0922 33.0652 21.0708 32.8838C21.0601 32.6916 21.0441 32.4995 21.0228 32.3074C21.0121 32.4141 20.9961 32.5208 20.9747 32.6276C20.9534 32.7343 20.9267 32.8411 20.8947 32.9478C20.852 33.1613 20.7986 33.3748 20.7346 33.5883C20.6812 33.7911 20.6225 34.0045 20.5585 34.2287L19.1815 39H17.3402L15.9473 34.2287C15.8832 34.0045 15.8245 33.7911 15.7711 33.5883C15.7178 33.3748 15.6644 33.1613 15.611 32.9478C15.5897 32.8411 15.563 32.7343 15.531 32.6276C15.5096 32.5208 15.4883 32.4141 15.4669 32.3074C15.4563 32.4995 15.4403 32.6916 15.4189 32.8838C15.4082 33.0652 15.3922 33.252 15.3709 33.4442C15.3495 33.6363 15.3282 33.8284 15.3068 34.0206C15.2855 34.202 15.2641 34.3888 15.2428 34.5809L14.6504 39H12.0726L13.6257 28.8009H16.3796L17.9326 34.0366C17.9647 34.1647 17.9967 34.2874 18.0287 34.4048C18.0714 34.5116 18.1034 34.6236 18.1248 34.7411C18.1568 34.8585 18.1835 34.9759 18.2048 35.0933C18.2262 35.2 18.2422 35.3175 18.2529 35.4455C18.2742 35.3068 18.2956 35.1734 18.3169 35.0453C18.3489 34.9065 18.381 34.7677 18.413 34.629C18.4343 34.5329 18.4557 34.4368 18.477 34.3408C18.4984 34.2447 18.5251 34.1433 18.5571 34.0366L20.1262 28.8009H22.8641L24.4492 39ZM26.9481 36.6944H29.5419L27.3964 41.0174H25.4751L26.9481 36.6944ZM31.7925 39V28.8009H38.0528V31.0265H34.5304V39H31.7925ZM41.6507 37.0787C41.2771 37.9112 40.8181 38.4396 40.2737 38.6638C39.74 38.8879 39.1583 39 38.5285 39C38.4858 39 38.4378 39 38.3844 39C38.3417 38.9893 38.299 38.984 38.2563 38.984C38.203 38.984 38.1496 38.984 38.0962 38.984C38.0535 38.9733 38.0108 38.968 37.9681 38.968V36.4542C38.2884 36.4329 38.5339 36.3902 38.7046 36.3261C38.8754 36.2514 39.0302 36.086 39.169 35.8298C39.1796 35.8085 39.1903 35.7871 39.201 35.7658C39.2117 35.7444 39.2223 35.7231 39.233 35.7017C39.4572 35.1787 39.6173 34.3621 39.7133 33.252C39.8201 32.1419 39.8788 30.6582 39.8895 28.8009H47.7669V39H44.997V31.0265H42.5793C42.526 32.3714 42.4192 33.5349 42.2591 34.5169C42.1097 35.4882 41.9442 36.2354 41.7628 36.7584C41.7414 36.8225 41.7201 36.8812 41.6987 36.9346C41.688 36.9879 41.672 37.036 41.6507 37.0787Z" fill="white"/>
</svg>
