<svg viewBox="0 0 50 55" fill="none" xmlns="http://www.w3.org/2000/svg">
<path d="M8 1.25H42C45.7279 1.25 48.75 4.27208 48.75 8V42C48.75 45.7279 45.7279 48.75 42 48.75H8C4.27208 48.75 1.25 45.7279 1.25 42V8C1.25 4.27208 4.27208 1.25 8 1.25Z" fill="white" stroke="#EEB039" stroke-width="2.5"/>
<path d="M13.7409 9.16279V12H12.7553V8.37088H16.0483V12H15.0627V9.16279H13.7409ZM17.8556 11.3163C17.7226 11.6126 17.5593 11.8006 17.3656 11.8804C17.1757 11.9601 16.9687 12 16.7446 12C16.7294 12 16.7123 12 16.6934 12C16.6782 11.9962 16.663 11.9943 16.6478 11.9943C16.6288 11.9943 16.6098 11.9943 16.5908 11.9943C16.5756 11.9905 16.5604 11.9886 16.5452 11.9886V11.0941C16.6592 11.0865 16.7465 11.0714 16.8073 11.0486C16.8681 11.022 16.9231 10.9631 16.9725 10.872C16.9763 10.8644 16.9801 10.8568 16.9839 10.8492C16.9877 10.8416 16.9915 10.834 16.9953 10.8264C17.0751 10.6403 17.132 10.3497 17.1662 9.9547C17.2042 9.55969 17.2251 9.03175 17.2289 8.37088H20.0319V12H19.0463V9.16279H18.186C18.167 9.64135 18.129 10.0554 18.0721 10.4048C18.0189 10.7504 17.96 11.0163 17.8955 11.2024C17.8879 11.2252 17.8803 11.2461 17.8727 11.2651C17.8689 11.2841 17.8632 11.3011 17.8556 11.3163ZM20.7738 12V8.37088H23.0014V9.16279H21.748V9.79518H22.9273V10.57H21.748V11.1853H23.0014V12H20.7738ZM23.6824 12V8.37088H24.668V9.77239H25.9898V8.37088H26.9754V12H25.9898V10.5244H24.668V12H23.6824ZM27.6717 12V8.37088H28.6516V10.0174L29.7968 8.37088H30.9533L29.6145 10.137L31.0729 12H29.8366L28.6516 10.3649V12H27.6717ZM34.5222 8.61016C34.7919 8.78487 35.0008 9.01846 35.1489 9.31092C35.3008 9.59957 35.3768 9.90153 35.3768 10.2168C35.3768 10.2548 35.3749 10.2946 35.3711 10.3364C35.3711 10.3744 35.3673 10.4124 35.3597 10.4504C35.3483 10.5301 35.3312 10.6099 35.3084 10.6896C35.2894 10.7656 35.2647 10.8416 35.2344 10.9175C35.0786 11.2859 34.8317 11.5727 34.4937 11.7778C34.1557 11.9791 33.8006 12.0798 33.4283 12.0798C33.4017 12.0798 33.3752 12.0779 33.3486 12.0741C33.3258 12.0741 33.3011 12.0741 33.2745 12.0741C33.1454 12.0627 33.0162 12.0399 32.8871 12.0057C32.7618 11.9715 32.6402 11.924 32.5225 11.8633C32.2034 11.6961 31.9528 11.4588 31.7704 11.1511C31.5881 10.8397 31.497 10.5168 31.497 10.1826C31.497 10.1332 31.4989 10.0838 31.5027 10.0345C31.5065 9.98509 31.5141 9.93381 31.5255 9.88064C31.5407 9.78188 31.5653 9.68313 31.5995 9.58438C31.6337 9.48183 31.6755 9.38498 31.7249 9.29382C31.9034 8.97098 32.1465 8.7241 32.4541 8.55319C32.7656 8.38227 33.0922 8.29681 33.434 8.29681C33.4758 8.29681 33.5176 8.29871 33.5594 8.30251C33.6049 8.30251 33.6486 8.30631 33.6904 8.3139C33.8347 8.33289 33.9772 8.36708 34.1177 8.41645C34.262 8.46583 34.3969 8.5304 34.5222 8.61016ZM34.3228 10.5985C34.3342 10.5605 34.3437 10.5206 34.3513 10.4788C34.3627 10.4371 34.3703 10.3953 34.3741 10.3535C34.3779 10.3269 34.3798 10.3003 34.3798 10.2737C34.3836 10.2472 34.3855 10.2225 34.3855 10.1997C34.3855 10.1769 34.3836 10.1541 34.3798 10.1313C34.3798 10.1085 34.3798 10.0857 34.3798 10.0629C34.3608 9.89963 34.3114 9.742 34.2316 9.59008C34.1519 9.43815 34.0398 9.32041 33.8955 9.23685C33.8575 9.21786 33.8195 9.20077 33.7816 9.18558C33.7436 9.17038 33.7075 9.15709 33.6733 9.1457C33.6353 9.1381 33.5974 9.1324 33.5594 9.1286C33.5214 9.12101 33.4834 9.11721 33.4454 9.11721C33.2517 9.11721 33.0732 9.17798 32.9099 9.29952C32.7466 9.42106 32.6326 9.58248 32.5681 9.78378C32.5567 9.82177 32.5453 9.86355 32.5339 9.90912C32.5225 9.9547 32.513 10.0003 32.5054 10.0459C32.5016 10.0724 32.4978 10.099 32.494 10.1256C32.494 10.1484 32.494 10.1731 32.494 10.1997C32.494 10.2149 32.494 10.2301 32.494 10.2453C32.494 10.2567 32.494 10.2699 32.494 10.2851C32.5092 10.4864 32.5719 10.6782 32.682 10.8606C32.7921 11.0391 32.9479 11.1568 33.1492 11.2138C33.1948 11.229 33.2403 11.2404 33.2859 11.248C33.3315 11.2556 33.379 11.2594 33.4283 11.2594C33.6258 11.2594 33.8063 11.2005 33.9696 11.0827C34.1329 10.9612 34.2506 10.7998 34.3228 10.5985ZM35.7786 11.1511V10.3478H37.4593V11.1511H35.7786ZM6.52296 14.6102C6.79263 14.7849 7.00152 15.0185 7.14965 15.3109C7.30158 15.5996 7.37754 15.9015 7.37754 16.2168C7.37754 16.2548 7.37564 16.2946 7.37184 16.3364C7.37184 16.3744 7.36804 16.4124 7.36045 16.4504C7.34905 16.5301 7.33196 16.6099 7.30917 16.6896C7.29018 16.7656 7.26549 16.8416 7.23511 16.9175C7.07939 17.2859 6.83251 17.5727 6.49447 17.7778C6.15644 17.9791 5.80131 18.0798 5.42909 18.0798C5.40251 18.0798 5.37592 18.0779 5.34933 18.0741C5.32654 18.0741 5.30186 18.0741 5.27527 18.0741C5.14613 18.0627 5.01699 18.0399 4.88786 18.0057C4.76252 17.9715 4.64098 17.924 4.52324 17.8633C4.20419 17.6961 3.95351 17.4588 3.7712 17.1511C3.58889 16.8397 3.49774 16.5168 3.49774 16.1826C3.49774 16.1332 3.49964 16.0838 3.50344 16.0345C3.50723 15.9851 3.51483 15.9338 3.52622 15.8806C3.54142 15.7819 3.5661 15.6831 3.60029 15.5844C3.63447 15.4818 3.67625 15.385 3.72563 15.2938C3.90414 14.971 4.14722 14.7241 4.45487 14.5532C4.76632 14.3823 5.09296 14.2968 5.43479 14.2968C5.47657 14.2968 5.51835 14.2987 5.56013 14.3025C5.60571 14.3025 5.64939 14.3063 5.69116 14.3139C5.83549 14.3329 5.97792 14.3671 6.11846 14.4165C6.26279 14.4658 6.39762 14.5304 6.52296 14.6102ZM6.32356 16.5985C6.33495 16.5605 6.34445 16.5206 6.35204 16.4788C6.36344 16.4371 6.37103 16.3953 6.37483 16.3535C6.37863 16.3269 6.38053 16.3003 6.38053 16.2737C6.38433 16.2472 6.38623 16.2225 6.38623 16.1997C6.38623 16.1769 6.38433 16.1541 6.38053 16.1313C6.38053 16.1085 6.38053 16.0857 6.38053 16.0629C6.36154 15.8996 6.31216 15.742 6.2324 15.5901C6.15264 15.4382 6.04059 15.3204 5.89626 15.2369C5.85828 15.2179 5.8203 15.2008 5.78232 15.1856C5.74434 15.1704 5.70826 15.1571 5.67407 15.1457C5.63609 15.1381 5.59811 15.1324 5.56013 15.1286C5.52215 15.121 5.48417 15.1172 5.44618 15.1172C5.25248 15.1172 5.07397 15.178 4.91065 15.2995C4.74733 15.4211 4.63338 15.5825 4.56881 15.7838C4.55742 15.8218 4.54603 15.8635 4.53463 15.9091C4.52324 15.9547 4.51374 16.0003 4.50614 16.0459C4.50235 16.0724 4.49855 16.099 4.49475 16.1256C4.49475 16.1484 4.49475 16.1731 4.49475 16.1997C4.49475 16.2149 4.49475 16.2301 4.49475 16.2453C4.49475 16.2567 4.49475 16.2699 4.49475 16.2851C4.50994 16.4864 4.57261 16.6782 4.68276 16.8606C4.7929 17.0391 4.94863 17.1568 5.14993 17.2138C5.19551 17.229 5.24109 17.2404 5.28666 17.248C5.33224 17.2556 5.37972 17.2594 5.42909 17.2594C5.6266 17.2594 5.80701 17.2005 5.97033 17.0827C6.13365 16.9612 6.25139 16.7998 6.32356 16.5985ZM8.91312 15.1628V15.8237H9.1467C9.21127 15.8237 9.27964 15.8256 9.3518 15.8294C9.42397 15.8294 9.49803 15.8313 9.57399 15.8351C9.66515 15.8427 9.75441 15.854 9.84176 15.8692C9.93292 15.8806 10.0146 15.8977 10.0867 15.9205C10.3032 16.0003 10.4817 16.1294 10.6223 16.3079C10.7666 16.4864 10.8388 16.7048 10.8388 16.9631V17.0486C10.8198 17.3904 10.6868 17.624 10.44 17.7493C10.1969 17.8747 9.92912 17.9506 9.63666 17.9772C9.53032 17.9886 9.42397 17.9962 9.31762 18C9.21127 18 9.11062 18 9.01567 18H7.99017V14.3709H10.2178V15.1628H8.91312ZM8.91312 16.4674V17.2537C8.93591 17.2537 8.96059 17.2537 8.98718 17.2537C9.01377 17.2537 9.04225 17.2537 9.07264 17.2537C9.08783 17.2575 9.10302 17.2594 9.11822 17.2594C9.13341 17.2594 9.1486 17.2594 9.16379 17.2594C9.17899 17.2594 9.19418 17.2594 9.20937 17.2594C9.22456 17.2594 9.23976 17.2594 9.25495 17.2594C9.26634 17.2594 9.27774 17.2594 9.28913 17.2594C9.30433 17.2594 9.31952 17.2594 9.33471 17.2594C9.46765 17.2556 9.59109 17.2328 9.70503 17.191C9.81897 17.1454 9.88164 17.0581 9.89304 16.9289V16.8549C9.89304 16.7067 9.83607 16.608 9.72212 16.5586C9.60818 16.5054 9.48474 16.475 9.3518 16.4674C9.33661 16.4674 9.32142 16.4674 9.30622 16.4674C9.29483 16.4674 9.28154 16.4674 9.26634 16.4674H8.91312ZM14.1906 16.0345C14.1032 16.3687 13.9323 16.5814 13.6779 16.6725C13.4272 16.7599 13.1594 16.8055 12.8745 16.8093C12.8556 16.8093 12.8366 16.8093 12.8176 16.8093C12.8024 16.8093 12.7853 16.8093 12.7663 16.8093C12.7397 16.8093 12.7131 16.8093 12.6865 16.8093C12.6638 16.8055 12.641 16.8036 12.6182 16.8036C12.5916 16.8036 12.565 16.8036 12.5384 16.8036C12.5156 16.7998 12.4909 16.7979 12.4644 16.7979V18H11.53V14.3709H12.6751C12.7245 14.3709 12.7739 14.3709 12.8233 14.3709C12.8727 14.3709 12.922 14.3728 12.9714 14.3766C13.1689 14.3842 13.3588 14.4165 13.5411 14.4734C13.7234 14.5304 13.8773 14.6443 14.0026 14.8153C14.0672 14.8988 14.1184 14.9938 14.1564 15.1001C14.1944 15.2027 14.221 15.3071 14.2362 15.4135C14.24 15.4439 14.2419 15.4761 14.2419 15.5103C14.2457 15.5445 14.2476 15.5768 14.2476 15.6072C14.2476 15.6793 14.2419 15.7534 14.2305 15.8294C14.2229 15.9015 14.2096 15.9699 14.1906 16.0345ZM12.4644 16.006C12.4795 16.006 12.4947 16.0079 12.5099 16.0117C12.5289 16.0117 12.5479 16.0117 12.5669 16.0117C12.5821 16.0117 12.5973 16.0136 12.6125 16.0174C12.6315 16.0174 12.6486 16.0174 12.6638 16.0174C12.6713 16.0174 12.6789 16.0174 12.6865 16.0174C12.6941 16.0174 12.7017 16.0174 12.7093 16.0174C12.8499 16.0136 12.979 15.987 13.0967 15.9376C13.2183 15.8844 13.281 15.7686 13.2847 15.5901V15.5559C13.2847 15.3964 13.2297 15.2919 13.1195 15.2425C13.0132 15.1894 12.8954 15.159 12.7663 15.1514C12.7435 15.1476 12.7207 15.1457 12.6979 15.1457C12.6751 15.1457 12.6524 15.1457 12.6296 15.1457H12.4644V16.006ZM14.2107 18L15.4584 14.3709H16.6947L17.9538 18H16.9625L16.7802 17.3448H15.3787L15.1906 18H14.2107ZM15.5895 16.6441H16.5751L16.2047 15.442C16.1858 15.385 16.1668 15.3261 16.1478 15.2653C16.1326 15.2008 16.1193 15.1381 16.1079 15.0773C16.1003 15.0545 16.0946 15.0337 16.0908 15.0147C16.087 14.9919 16.0832 14.971 16.0794 14.952C16.0756 14.971 16.0699 14.9919 16.0623 15.0147C16.0585 15.0337 16.0547 15.0545 16.0509 15.0773C16.0471 15.0849 16.0452 15.0925 16.0452 15.1001C16.0452 15.1039 16.0433 15.1096 16.0395 15.1172C16.0281 15.1742 16.0148 15.2293 15.9996 15.2824C15.9883 15.3356 15.975 15.3888 15.9598 15.442L15.5895 16.6441ZM19.6158 17.2537C19.6538 17.2537 19.6937 17.2518 19.7355 17.248C19.781 17.2442 19.8247 17.2385 19.8665 17.2309C19.9918 17.2081 20.1058 17.1663 20.2083 17.1055C20.3147 17.0448 20.3717 16.9612 20.3792 16.8549V16.8207C20.3792 16.6991 20.3185 16.6156 20.1969 16.57C20.0754 16.5206 19.9406 16.4902 19.7924 16.4788C19.7393 16.475 19.688 16.4731 19.6386 16.4731C19.5892 16.4693 19.5418 16.4674 19.4962 16.4674H19.405V15.8237C19.4126 15.8237 19.4202 15.8237 19.4278 15.8237C19.4392 15.8237 19.4506 15.8237 19.462 15.8237C19.4734 15.8275 19.4848 15.8294 19.4962 15.8294C19.5076 15.8294 19.519 15.8294 19.5304 15.8294C19.5645 15.8294 19.5987 15.8294 19.6329 15.8294C19.6709 15.8256 19.7089 15.8218 19.7469 15.818C19.8646 15.8066 19.9728 15.78 20.0716 15.7382C20.1704 15.6964 20.2254 15.6224 20.2368 15.516V15.4249C20.2368 15.2767 20.1855 15.1799 20.083 15.1343C19.9804 15.0849 19.8665 15.0564 19.7412 15.0488C19.7108 15.045 19.6785 15.0431 19.6443 15.0431C19.6139 15.0431 19.5835 15.0431 19.5532 15.0431C19.5342 15.0469 19.5133 15.0507 19.4905 15.0545C19.4715 15.0583 19.4506 15.064 19.4278 15.0716C19.3746 15.083 19.3196 15.1001 19.2626 15.1229C19.2094 15.1419 19.16 15.1628 19.1145 15.1856C19.0651 15.2084 19.0195 15.2312 18.9777 15.2539C18.9398 15.2729 18.9094 15.29 18.8866 15.3052L18.5561 14.6842C18.5713 14.6728 18.5884 14.6614 18.6074 14.65C18.6264 14.6386 18.6454 14.6272 18.6644 14.6159C18.7897 14.5437 18.936 14.4772 19.1031 14.4165C19.274 14.3519 19.4563 14.3158 19.65 14.3082H19.6899C20.2064 14.3082 20.5692 14.3918 20.7781 14.5589C20.987 14.726 21.1161 14.9406 21.1655 15.2027C21.1617 15.4344 21.1085 15.6186 21.0059 15.7553C20.9072 15.8882 20.7515 15.987 20.5388 16.0516C20.8008 16.1123 20.9945 16.2206 21.1199 16.3763C21.2452 16.5282 21.3098 16.7219 21.3136 16.9574C21.3136 16.9726 21.3117 16.9878 21.3079 17.003C21.3079 17.0182 21.3079 17.0334 21.3079 17.0486C21.2889 17.2195 21.2281 17.3828 21.1256 17.5385C21.0268 17.6942 20.8958 17.8025 20.7325 17.8633C20.6185 17.9088 20.4932 17.9449 20.3565 17.9715C20.2197 17.9943 20.0811 18.0114 19.9406 18.0228C19.9064 18.0228 19.8722 18.0228 19.838 18.0228C19.8076 18.0266 19.7772 18.0285 19.7469 18.0285C19.7355 18.0285 19.7241 18.0285 19.7127 18.0285C19.7051 18.0285 19.6956 18.0285 19.6842 18.0285C19.4525 18.0247 19.2246 17.9943 19.0005 17.9373C18.7802 17.8766 18.5846 17.7892 18.4137 17.6753L18.7726 16.9004C18.8828 17.003 19.0005 17.0846 19.1259 17.1454C19.255 17.2062 19.4183 17.2423 19.6158 17.2537ZM24.872 14.6102C25.1417 14.7849 25.3506 15.0185 25.4987 15.3109C25.6506 15.5996 25.7266 15.9015 25.7266 16.2168C25.7266 16.2548 25.7247 16.2946 25.7209 16.3364C25.7209 16.3744 25.7171 16.4124 25.7095 16.4504C25.6981 16.5301 25.681 16.6099 25.6582 16.6896C25.6392 16.7656 25.6145 16.8416 25.5841 16.9175C25.4284 17.2859 25.1815 17.5727 24.8435 17.7778C24.5055 17.9791 24.1503 18.0798 23.7781 18.0798C23.7515 18.0798 23.725 18.0779 23.6984 18.0741C23.6756 18.0741 23.6509 18.0741 23.6243 18.0741C23.4952 18.0627 23.366 18.0399 23.2369 18.0057C23.1116 17.9715 22.99 17.924 22.8723 17.8633C22.5532 17.6961 22.3025 17.4588 22.1202 17.1511C21.9379 16.8397 21.8468 16.5168 21.8468 16.1826C21.8468 16.1332 21.8487 16.0838 21.8525 16.0345C21.8563 15.9851 21.8639 15.9338 21.8753 15.8806C21.8904 15.7819 21.9151 15.6831 21.9493 15.5844C21.9835 15.4818 22.0253 15.385 22.0747 15.2938C22.2532 14.971 22.4963 14.7241 22.8039 14.5532C23.1154 14.3823 23.442 14.2968 23.7838 14.2968C23.8256 14.2968 23.8674 14.2987 23.9092 14.3025C23.9547 14.3025 23.9984 14.3063 24.0402 14.3139C24.1845 14.3329 24.327 14.3671 24.4675 14.4165C24.6118 14.4658 24.7467 14.5304 24.872 14.6102ZM24.6726 16.5985C24.684 16.5605 24.6935 16.5206 24.7011 16.4788C24.7125 16.4371 24.7201 16.3953 24.7239 16.3535C24.7277 16.3269 24.7296 16.3003 24.7296 16.2737C24.7334 16.2472 24.7353 16.2225 24.7353 16.1997C24.7353 16.1769 24.7334 16.1541 24.7296 16.1313C24.7296 16.1085 24.7296 16.0857 24.7296 16.0629C24.7106 15.8996 24.6612 15.742 24.5814 15.5901C24.5017 15.4382 24.3896 15.3204 24.2453 15.2369C24.2073 15.2179 24.1693 15.2008 24.1314 15.1856C24.0934 15.1704 24.0573 15.1571 24.0231 15.1457C23.9851 15.1381 23.9471 15.1324 23.9092 15.1286C23.8712 15.121 23.8332 15.1172 23.7952 15.1172C23.6015 15.1172 23.423 15.178 23.2597 15.2995C23.0964 15.4211 22.9824 15.5825 22.9178 15.7838C22.9065 15.8218 22.8951 15.8635 22.8837 15.9091C22.8723 15.9547 22.8628 16.0003 22.8552 16.0459C22.8514 16.0724 22.8476 16.099 22.8438 16.1256C22.8438 16.1484 22.8438 16.1731 22.8438 16.1997C22.8438 16.2149 22.8438 16.2301 22.8438 16.2453C22.8438 16.2567 22.8438 16.2699 22.8438 16.2851C22.859 16.4864 22.9216 16.6782 23.0318 16.8606C23.1419 17.0391 23.2977 17.1568 23.499 17.2138C23.5445 17.229 23.5901 17.2404 23.6357 17.248C23.6813 17.2556 23.7288 17.2594 23.7781 17.2594C23.9756 17.2594 24.156 17.2005 24.3194 17.0827C24.4827 16.9612 24.6004 16.7998 24.6726 16.5985ZM26.3392 14.3709H27.4786C27.5508 14.3709 27.6268 14.3728 27.7065 14.3766C27.7863 14.3766 27.8661 14.3804 27.9458 14.388C28.2079 14.4108 28.4491 14.4772 28.6694 14.5874C28.8935 14.6937 29.0131 14.8988 29.0283 15.2027V15.2767C29.0283 15.497 28.9675 15.6641 28.846 15.7781C28.7282 15.892 28.5668 15.9794 28.3617 16.0402C28.6276 16.0667 28.8308 16.1636 28.9713 16.3307C29.1156 16.494 29.1878 16.7029 29.1878 16.9574V17.0486C29.1688 17.3904 29.0359 17.624 28.789 17.7493C28.5459 17.8747 28.2782 17.9506 27.9857 17.9772C27.8793 17.9886 27.773 17.9962 27.6667 18C27.5603 18 27.4597 18 27.3647 18H26.3392V14.3709ZM27.2621 17.2537C27.2849 17.2537 27.3096 17.2537 27.3362 17.2537C27.3628 17.2537 27.3913 17.2537 27.4217 17.2537C27.4369 17.2575 27.4521 17.2594 27.4672 17.2594C27.4824 17.2594 27.4976 17.2594 27.5128 17.2594C27.528 17.2594 27.5432 17.2594 27.5584 17.2594C27.5736 17.2594 27.5888 17.2594 27.604 17.2594C27.6154 17.2594 27.6268 17.2594 27.6382 17.2594C27.6534 17.2594 27.6686 17.2594 27.6837 17.2594C27.8167 17.2556 27.9401 17.2328 28.0541 17.191C28.168 17.1454 28.2307 17.0581 28.2421 16.9289V16.8549C28.2421 16.7067 28.1851 16.608 28.0712 16.5586C27.9572 16.5054 27.8338 16.475 27.7008 16.4674C27.6856 16.4674 27.6704 16.4674 27.6553 16.4674C27.6439 16.4674 27.6306 16.4674 27.6154 16.4674H27.2621V17.2537ZM28.0939 15.516V15.4533C28.0939 15.3204 28.0446 15.2293 27.9458 15.1799C27.8471 15.1305 27.7369 15.102 27.6154 15.0944C27.6002 15.0906 27.5831 15.0887 27.5641 15.0887C27.5451 15.0887 27.528 15.0887 27.5128 15.0887H27.2621V15.8237C27.2811 15.8237 27.3001 15.8237 27.3191 15.8237C27.3419 15.8237 27.3647 15.8237 27.3875 15.8237C27.3989 15.8275 27.4084 15.8294 27.416 15.8294C27.4274 15.8294 27.4388 15.8294 27.4502 15.8294C27.4653 15.8294 27.4786 15.8294 27.49 15.8294C27.5052 15.8294 27.5185 15.8294 27.5299 15.8294C27.5413 15.8294 27.5527 15.8294 27.5641 15.8294C27.5793 15.8294 27.5945 15.8294 27.6097 15.8294C27.7236 15.8218 27.8281 15.799 27.923 15.761C28.0218 15.7192 28.0787 15.6376 28.0939 15.516ZM29.6555 18L30.9032 14.3709H32.1395L33.3986 18H32.4073L32.225 17.3448H30.8234L30.6354 18H29.6555ZM31.0342 16.6441H32.0199L31.6495 15.442C31.6305 15.385 31.6116 15.3261 31.5926 15.2653C31.5774 15.2008 31.5641 15.1381 31.5527 15.0773C31.5451 15.0545 31.5394 15.0337 31.5356 15.0147C31.5318 14.9919 31.528 14.971 31.5242 14.952C31.5204 14.971 31.5147 14.9919 31.5071 15.0147C31.5033 15.0337 31.4995 15.0545 31.4957 15.0773C31.4919 15.0849 31.49 15.0925 31.49 15.1001C31.49 15.1039 31.4881 15.1096 31.4843 15.1172C31.4729 15.1742 31.4596 15.2293 31.4444 15.2824C31.433 15.3356 31.4197 15.3888 31.4046 15.442L31.0342 16.6441ZM34.8099 18V15.2312H34.0009V14.3709H36.6103V15.2312H35.8012V18H34.8099ZM36.8222 18V14.3709H39.0499V15.1628H37.7965V15.7952H38.9758V16.57H37.7965V17.1853H39.0499V18H36.8222ZM40.8475 17.3163C40.7146 17.6126 40.5513 17.8006 40.3576 17.8804C40.1676 17.9601 39.9606 18 39.7366 18C39.7214 18 39.7043 18 39.6853 18C39.6701 17.9962 39.6549 17.9943 39.6397 17.9943C39.6207 17.9943 39.6017 17.9943 39.5827 17.9943C39.5675 17.9905 39.5523 17.9886 39.5372 17.9886V17.0941C39.6511 17.0865 39.7385 17.0714 39.7992 17.0486C39.86 17.022 39.9151 16.9631 39.9644 16.872C39.9682 16.8644 39.972 16.8568 39.9758 16.8492C39.9796 16.8416 39.9834 16.834 39.9872 16.8264C40.067 16.6403 40.124 16.3497 40.1582 15.9547C40.1961 15.5597 40.217 15.0318 40.2208 14.3709H43.0238V18H42.0382V15.1628H41.178C41.159 15.6414 41.121 16.0554 41.064 16.4048C41.0108 16.7504 40.952 17.0163 40.8874 17.2024C40.8798 17.2252 40.8722 17.2461 40.8646 17.2651C40.8608 17.2841 40.8551 17.3011 40.8475 17.3163ZM44.6431 14.3709V15.8237H44.8767C44.9413 15.8237 45.0096 15.8256 45.0818 15.8294C45.154 15.8294 45.228 15.8313 45.304 15.8351C45.3951 15.8427 45.4844 15.854 45.5717 15.8692C45.6629 15.8806 45.7446 15.8977 45.8167 15.9205C46.0332 16.0003 46.2117 16.1294 46.3523 16.3079C46.4966 16.4864 46.5688 16.7048 46.5688 16.9631V17.0486C46.5498 17.3904 46.4168 17.624 46.17 17.7493C45.9269 17.8747 45.6591 17.9506 45.3666 17.9772C45.2603 17.9886 45.154 17.9962 45.0476 18C44.9413 18 44.8406 18 44.7457 18H43.7202V14.3709H44.6431ZM45.623 16.9289V16.8549C45.623 16.7067 45.5661 16.608 45.4521 16.5586C45.3382 16.5054 45.2147 16.475 45.0818 16.4674C45.0666 16.4674 45.0514 16.4674 45.0362 16.4674C45.0248 16.4674 45.0115 16.4674 44.9963 16.4674H44.6431V17.2537C44.6659 17.2537 44.6906 17.2537 44.7172 17.2537C44.7438 17.2537 44.7722 17.2537 44.8026 17.2537C44.8178 17.2575 44.833 17.2594 44.8482 17.2594C44.8634 17.2594 44.8786 17.2594 44.8938 17.2594C44.909 17.2594 44.9242 17.2594 44.9394 17.2594C44.9545 17.2594 44.9697 17.2594 44.9849 17.2594C44.9963 17.2594 45.0077 17.2594 45.0191 17.2594C45.0343 17.2594 45.0495 17.2594 45.0647 17.2594C45.1976 17.2556 45.3211 17.2328 45.435 17.191C45.549 17.1454 45.6116 17.0581 45.623 16.9289Z" fill="#EEB039"/>
<path d="M0 24H49V41C49 45.4183 45.4183 49 41 49H8C3.58172 49 0 45.4183 0 41V24Z" fill="#EEB039"/>
<path d="M10.0034 30.2383V46H4.52793V25.8389H22.8216V46H17.3462V30.2383H10.0034ZM36.2798 34.3528L36.7546 32.3588L39.4765 25.8389H45.9964L36.0266 46H29.8232L33.1148 39.7966L26.7532 25.8389H33.2731L35.7734 32.3588L36.2798 34.3528Z" fill="white"/>
</svg>
