<svg width="254" height="39" viewBox="0 0 254 39" fill="none" xmlns="http://www.w3.org/2000/svg">
<g clip-path="url(#clip0_2283_249)">
<path d="M0 38.8805L14.8061 16.9331L30.0361 26.2289L36.0363 38.9383L0 39.0001V38.8805Z" fill="#A17217"/>
<path d="M36.1789 7.13194L41.8131 7.26694L58.5113 32.5585L38.5952 17.4422L31.3386 22.7381L20.7485 16.339L31.2808 0L31.5698 0.12343L36.1789 7.13194Z" fill="#EEB039"/>
<path d="M60.7735 38.9999H39.9595L33.6509 25.4727L38.495 21.9666L60.7735 38.9999Z" fill="#795511"/>
<path d="M4.79785 25.1065V2.59595H21.5424L4.79785 25.1065Z" fill="black"/>
<path d="M43.2002 2.59595H56.0293V23.1046L43.2002 2.59595Z" fill="black"/>
<path d="M78.8012 6.052H85.6725L94.3665 31.2934H88.6514L86.7785 25.5385H77.6798L75.8069 31.2934H70.0918L78.7974 6.052H78.8012ZM79.0363 21.3689H85.4412L82.339 11.8185H82.1424L79.0402 21.3689H79.0363Z" fill="black"/>
<path d="M102.467 12.3584V15.5368H102.702C103.404 13.9977 104.918 12.1116 108.082 12.1116C112.232 12.1116 115.739 15.34 115.739 21.8471C115.739 28.3542 112.379 31.5942 108.067 31.5942C105.014 31.5942 103.423 29.8315 102.698 28.2539H102.536V38.3829H97.2915V12.3584H102.463H102.467ZM102.429 21.824C102.429 25.199 103.881 27.4207 106.406 27.4207C108.93 27.4207 110.383 25.1296 110.383 21.824C110.383 18.5184 109.003 16.2889 106.406 16.2889C103.808 16.2889 102.429 18.4451 102.429 21.824Z" fill="black"/>
<path d="M119.223 31.2895V10.9197L124.233 13.8164V24.3658L131.043 12.3623H136.214V31.2933H131.216V19.2512L124.43 31.2933H119.219L119.223 31.2895Z" fill="black"/>
<path d="M139.479 31.2895L143.556 23.66C141.301 22.6725 140.01 20.8751 140.022 18.5685C139.999 14.8733 143.051 12.3584 147.953 12.3584H156.389V31.2895H151.502V24.4622H148.142L144.508 31.2895H139.482H139.479ZM147.899 20.9136H151.494V16.4779H147.949C146.014 16.4779 144.993 17.5116 145.02 18.7228C144.997 19.9571 145.991 20.9175 147.903 20.9175L147.899 20.9136Z" fill="black"/>
<path d="M169.842 23.008H160.743L163.144 18.8423H172.243L169.842 23.008Z" fill="black"/>
<path d="M176.158 26.9386C178.929 26.7033 179.962 24.3119 180.208 17.2764L180.629 6.0481H197.743V31.2895H192.56V10.3257H185.577L185.184 19.1124C184.791 27.5789 182.895 31.2895 176.821 31.2895H175.441V27.0003L176.154 26.9386H176.158Z" fill="black"/>
<path d="M202.125 7.59092L207.455 4.50903V16.1307H208.526L216.9 6.04805H223.536L213.698 17.7546L223.991 31.2856H217.378L209.278 20.5279H207.455V31.2856H202.125V7.59092Z" fill="black"/>
<path d="M226.662 31.2896V6.052H233.236L240.181 23.012H240.477L247.422 6.052H253.996V31.2934H248.824V14.8657H248.616L242.092 31.17H238.57L232.045 14.804H231.837V31.2934H226.665L226.662 31.2896Z" fill="black"/>
</g>
<defs>
<clipPath id="clip0_2283_249">
<rect width="254" height="39" fill="white"/>
</clipPath>
</defs>
</svg>
